<svg width="99" height="155" viewBox="0 0 99 155" fill="none" xmlns="http://www.w3.org/2000/svg">
<path d="M152.371 12.0931L138.193 78.8158L119.507 74.6984L119.316 74.657C114.891 73.7168 110.292 73.9908 106.004 75.4529L100.857 77.21L97.2363 70.8383C96.9441 70.3273 96.5983 69.8456 96.2047 69.4051C94.7176 67.7384 92.671 66.7521 90.4425 66.6261C88.2131 66.4999 86.0676 67.2486 84.4014 68.7352L80.5514 72.1698L79.6468 56.6096C79.4889 53.8755 77.849 51.4578 75.3621 50.3001C73.5623 49.4659 71.5452 49.3772 69.6799 50.0582C67.8148 50.7384 66.3281 52.1046 65.4911 53.9031L58.5019 68.9271L58.3964 58.4196C58.3645 55.4009 56.7 52.6248 54.0535 51.1769C52.0929 50.1026 49.8349 49.8564 47.6924 50.4833C45.5492 51.1092 43.7782 52.5307 42.7051 54.4888L38.1548 62.7932L37.5221 57.0688C37.1236 53.4786 34.483 50.5635 30.9496 49.8128L26.0542 48.7728C23.5457 48.2399 21.0796 49.8403 20.5466 52.3488C20.0137 54.8574 21.6161 57.3222 24.1247 57.8551L28.3631 58.7556L30.2168 75.516C30.5564 78.5658 33.3161 80.7772 36.3714 80.4392C38.1753 80.2396 39.7731 79.1685 40.6436 77.5784L49.1438 62.0666L49.3792 85.4201C49.3946 86.9079 49.9874 88.3011 51.0516 89.3435C51.8162 90.0936 52.7597 90.5959 53.7837 90.8134C54.1816 90.898 54.5934 90.9399 55.0102 90.9354C57.1401 90.9133 59.1001 89.6524 60.0055 87.7147L70.8025 64.5076L71.5031 76.5446C71.617 78.5251 72.4975 80.343 73.9794 81.663C75.4618 82.9813 77.3693 83.6438 79.3503 83.5312C81.0172 83.4354 82.622 82.7692 83.8685 81.6577L89.7293 76.4281L92.7819 81.7972C94.9858 85.6684 99.6415 87.434 103.858 85.9966L109.005 84.2405C111.742 83.3062 114.636 83.135 117.507 83.7659L136.263 87.8981L118.807 170.077L-20.9468 140.386L12.6176 -17.598L152.371 12.0931Z" fill="#EBEBEB"/>
</svg>
